<svg width="22" height="22" viewBox="0 0 22 22" fill="none" xmlns="http://www.w3.org/2000/svg">
<g clip-path="url(#clip0_297_19149)">
<path d="M19.9909 4.38287C19.9955 4.35356 19.9955 4.32373 19.9909 4.29442C19.9639 4.03918 19.8648 3.79696 19.7052 3.59615C19.5158 3.36311 19.2493 3.20568 18.9541 3.15232C18.6589 3.09896 18.3544 3.15319 18.0956 3.30521C17.7089 3.51246 17.3934 3.8315 17.19 4.22086C16.9866 4.61022 16.9048 5.05189 16.9552 5.48845C16.9771 5.684 17.0422 5.87219 17.1459 6.0393C17.2496 6.20641 17.3892 6.34822 17.5545 6.45438C17.7446 6.57096 17.9633 6.63221 18.1862 6.63128C18.3389 6.63074 18.4904 6.60479 18.6345 6.55447C18.9132 6.45211 19.1661 6.28959 19.3752 6.07843C19.5843 5.86726 19.7446 5.61261 19.8446 5.33251C19.8798 5.24497 19.9078 5.15466 19.9282 5.06251C19.9423 4.99614 19.9609 4.93082 19.9839 4.867L19.9979 4.48993L20.0118 4.41778L19.9909 4.38287ZM19.2546 4.54812C19.2514 4.79556 19.1858 5.03817 19.064 5.25343C18.9422 5.46869 18.7681 5.64961 18.5579 5.7794C18.4427 5.85584 18.3053 5.8911 18.1676 5.87948C18.0454 5.86848 17.9311 5.81374 17.8458 5.72527C17.7605 5.6368 17.7099 5.52051 17.7031 5.39768C17.6691 5.11845 17.7169 4.83533 17.8406 4.58282C17.9643 4.33031 18.1586 4.11931 18.3999 3.97554C18.5014 3.91745 18.6153 3.88471 18.732 3.88011H18.7994C18.9128 3.89806 19.0169 3.95375 19.0948 4.0382C19.1728 4.12265 19.2201 4.23094 19.2291 4.34562C19.2447 4.41204 19.2532 4.47991 19.2546 4.54812Z" fill="#1D588E"/>
<path d="M10.3822 6.45416C10.5475 6.34799 10.6871 6.20618 10.7908 6.03907C10.8944 5.87196 10.9596 5.68377 10.9814 5.48822C11.0341 5.05241 10.9549 4.61079 10.754 4.22065C10.5531 3.83052 10.2399 3.50988 9.85496 3.30033C9.59618 3.14831 9.29167 3.09408 8.99646 3.14744C8.70126 3.2008 8.43485 3.35823 8.24537 3.59127C8.08792 3.78751 7.99034 4.02512 7.96433 4.27557C7.95221 4.31389 7.94748 4.35418 7.9504 4.39428L7.93646 4.41057V4.80858L7.9504 4.86677C7.97375 4.93226 7.99314 4.9991 8.00846 5.06694C8.02766 5.15762 8.05487 5.24642 8.08976 5.33228C8.18977 5.61239 8.35 5.86704 8.55911 6.0782C8.76823 6.28937 9.02111 6.45188 9.29985 6.55424C9.44399 6.60456 9.59548 6.63052 9.74812 6.63105C9.97179 6.63242 10.1914 6.57115 10.3822 6.45416ZM9.78296 5.87925C9.64264 5.88946 9.50292 5.85261 9.38579 5.77451C9.17626 5.64621 9.00251 5.46691 8.88069 5.25327C8.75886 5.03962 8.69292 4.79858 8.689 4.55255C8.68928 4.47979 8.69706 4.40725 8.71222 4.33609C8.72381 4.22376 8.7723 4.11846 8.85007 4.03673C8.92784 3.95501 9.03049 3.90148 9.14191 3.88454H9.20694C9.32489 3.88822 9.43998 3.92186 9.5414 3.9823C9.7827 4.12546 9.97712 4.33601 10.1009 4.58817C10.2246 4.84034 10.2723 5.12319 10.2382 5.4021C10.2307 5.52267 10.1809 5.63669 10.0975 5.724C10.0142 5.81132 9.90281 5.86631 9.78296 5.87925Z" fill="#1D588E"/>
<path d="M18.379 8.98451V8.8821C18.379 8.80529 18.3581 8.72848 18.3419 8.64934V8.61443C18.3219 8.5237 18.2963 8.43431 18.2652 8.34676C18.2397 8.27461 18.2095 8.20478 18.17 8.11401C18.1613 8.09818 18.1536 8.08186 18.1468 8.06513C18.1236 8.02091 18.0957 7.97668 18.0725 7.93479C18.0492 7.89289 18.0167 7.84168 17.9842 7.79281L17.9238 7.70901C17.8964 7.6687 17.867 7.62986 17.8355 7.59264L17.8077 7.56005L17.7821 7.53445L17.7241 7.4716L17.6846 7.44833C17.6497 7.41109 17.6149 7.37385 17.5754 7.33661C17.0302 6.80384 16.5911 6.1719 16.2817 5.47457C16.1403 5.11491 15.9295 4.78669 15.6616 4.50863C15.5965 4.44616 15.5283 4.38712 15.4572 4.33174C15.0533 4.01803 14.5604 3.84114 14.0497 3.82666H13.9939H13.9033C13.397 3.84003 12.9084 4.01629 12.5097 4.32941C12.4368 4.38441 12.367 4.44347 12.3007 4.5063C12.0337 4.78602 11.8231 5.1148 11.6806 5.47457C11.3724 6.17605 10.9333 6.81203 10.3869 7.34824C10.3474 7.38548 10.3125 7.42273 10.2777 7.46229L10.2614 7.48091C10.2382 7.50186 10.215 7.52746 10.1848 7.56005L10.1685 7.57634C10.1586 7.58662 10.1493 7.5975 10.1407 7.60893C10.1092 7.64615 10.0798 7.685 10.0524 7.72531L9.98968 7.81143C9.95949 7.85798 9.93162 7.90453 9.90375 7.95108C9.87587 7.99763 9.85265 8.0372 9.82942 8.08375L9.79923 8.14892C9.76671 8.21875 9.73652 8.28857 9.704 8.38168C9.67939 8.45742 9.65846 8.53432 9.64129 8.6121V8.64236C9.6243 8.71914 9.61189 8.79686 9.60413 8.87512C9.60413 8.9077 9.60413 8.94262 9.60413 8.97753V9.04037C9.60413 9.07761 9.60413 9.11253 9.60413 9.14744C9.60413 9.18235 9.60413 9.22658 9.60413 9.26382V9.34063C9.60413 9.37088 9.60413 9.40347 9.60413 9.43606C9.64262 9.77174 9.75358 10.095 9.9293 10.3834C9.9385 10.3985 9.94941 10.4126 9.96181 10.4253C10.2269 10.8396 10.6106 11.1641 11.0627 11.3563C11.3961 11.5059 11.7566 11.5852 12.1219 11.589C12.3417 11.5927 12.5611 11.5677 12.7745 11.5146C13.5699 11.3035 14.4063 11.3035 15.2017 11.5146C15.7717 11.6641 16.3757 11.614 16.9135 11.3726C17.3649 11.1813 17.7474 10.8565 18.0097 10.4416C18.0234 10.4263 18.0358 10.4099 18.0469 10.3927C18.2229 10.1036 18.3339 9.77952 18.3721 9.44304C18.3721 9.41278 18.3721 9.38019 18.3721 9.34994V9.27313C18.3721 9.23589 18.3721 9.19632 18.3721 9.15675C18.3721 9.11718 18.3721 9.0846 18.3721 9.05201L18.379 8.98451ZM17.6521 9.12649C17.648 9.30159 17.6207 9.47536 17.5708 9.64321C17.4623 9.98358 17.2463 10.2793 16.9553 10.4858C16.9381 10.4925 16.9217 10.501 16.9065 10.5114C16.6845 10.6616 16.4338 10.7639 16.1702 10.8116C15.9064 10.8583 15.6358 10.8488 15.3759 10.7837C14.9436 10.67 14.4989 10.6106 14.052 10.6068H13.9126C13.4651 10.6108 13.0197 10.6694 12.5864 10.7814C12.3263 10.8481 12.0549 10.8583 11.7905 10.8113C11.5261 10.7644 11.2748 10.6613 11.0535 10.5091H11.0256C10.7317 10.3005 10.5152 10 10.4101 9.65485C10.3604 9.48775 10.333 9.31477 10.3288 9.14046C10.3298 9.06254 10.336 8.98479 10.3474 8.9077C10.3789 8.69769 10.4515 8.49599 10.5611 8.31418C10.6429 8.18886 10.7388 8.07329 10.8467 7.9697C11.2835 7.55028 11.6644 7.07621 11.9802 6.5592C12.1606 6.25818 12.3242 5.94736 12.4703 5.62818L12.4981 5.56767C12.6253 5.27855 12.8337 5.03274 13.0978 4.86017C13.362 4.6876 13.6705 4.59572 13.9858 4.59572C14.3011 4.59572 14.6096 4.6876 14.8737 4.86017C15.1379 5.03274 15.3462 5.27855 15.4734 5.56767L15.5036 5.63051C15.6478 5.95018 15.8107 6.26105 15.9914 6.56153C16.3071 7.07925 16.6881 7.5541 17.1248 7.97435C17.232 8.07567 17.3264 8.1898 17.4059 8.31418C17.5175 8.49707 17.5917 8.70042 17.6242 8.91236C17.6379 8.98309 17.6472 9.0546 17.6521 9.12649Z" fill="#1D588E"/>
<path d="M12.2217 3.58675C12.2565 3.58907 12.2914 3.58907 12.3262 3.58675C12.5094 3.56189 12.6839 3.49358 12.8354 3.38752C12.9869 3.28146 13.1109 3.1407 13.1972 2.97694C13.3465 2.72216 13.4348 2.43612 13.455 2.14135C13.496 1.81 13.4593 1.47365 13.3481 1.15894C13.2368 0.844231 13.054 0.559804 12.814 0.328185C12.6076 0.123569 12.3308 0.00610081 12.0406 0C11.8624 0.00660575 11.6885 0.0559172 11.5333 0.143799C11.3781 0.231681 11.2462 0.35557 11.1487 0.505078C10.9106 0.862451 10.7911 1.28601 10.8072 1.7154C10.8026 2.25267 11 2.772 11.36 3.17012C11.4672 3.29536 11.5991 3.39703 11.7474 3.46873C11.8957 3.54043 12.0572 3.58061 12.2217 3.58675ZM11.6922 1.03809C11.7157 0.993238 11.7429 0.95042 11.7734 0.910072C11.8278 0.829421 11.9109 0.77276 12.0057 0.751799H12.0313C12.1177 0.758229 12.1994 0.793463 12.2635 0.851883C12.5075 1.06157 12.6635 1.35585 12.7002 1.67584C12.7148 1.75722 12.721 1.8399 12.7188 1.92256C12.7272 2.18176 12.6549 2.43718 12.512 2.65341C12.4835 2.70073 12.4455 2.74154 12.4003 2.77321C12.355 2.80488 12.3037 2.8267 12.2496 2.83728C12.1962 2.83832 12.1431 2.82808 12.0939 2.80723C12.0447 2.78637 12.0004 2.75538 11.9639 2.71625C11.7199 2.48483 11.5743 2.16804 11.5574 1.83178C11.5204 1.55964 11.5675 1.28267 11.6922 1.03809Z" fill="#1D588E"/>
<path d="M14.7534 2.97231C14.8397 3.13534 14.9635 3.27546 15.1145 3.38109C15.2656 3.48672 15.4395 3.55483 15.622 3.5798C15.6568 3.58212 15.6917 3.58212 15.7265 3.5798C15.8923 3.5749 16.0552 3.5353 16.2048 3.46355C16.3544 3.3918 16.4874 3.28948 16.5952 3.16317C16.9565 2.76303 17.1539 2.24106 17.148 1.70147C17.1632 1.27364 17.0437 0.851867 16.8066 0.495797C16.7209 0.35807 16.605 0.241761 16.4677 0.155736C16.3303 0.0697116 16.1752 0.0162425 16.0142 -0.000594775C15.8531 -0.0174321 15.6903 0.0028069 15.5382 0.0585793C15.3861 0.114352 15.2488 0.204185 15.1366 0.321231C14.8951 0.552795 14.7111 0.837849 14.5994 1.15353C14.4876 1.46922 14.4513 1.80674 14.4932 2.13905C14.5135 2.43341 14.6026 2.71885 14.7534 2.97231ZM15.2179 1.92259C15.2154 1.83827 15.2224 1.75395 15.2388 1.67121C15.2749 1.35115 15.432 1.05712 15.6778 0.849585C15.7419 0.791164 15.8236 0.75593 15.91 0.7495H15.9356C16.0307 0.769778 16.1141 0.826598 16.1678 0.907773C16.2005 0.947978 16.2285 0.991695 16.2515 1.03812C16.374 1.28175 16.4209 1.55656 16.3862 1.82716C16.3691 2.1645 16.2226 2.4822 15.9774 2.71395C15.941 2.7532 15.8967 2.78427 15.8475 2.80513C15.7982 2.82599 15.7451 2.83617 15.6917 2.83498C15.6378 2.82452 15.5868 2.80272 15.5419 2.77102C15.4971 2.73933 15.4595 2.69845 15.4316 2.65111C15.2908 2.435 15.2202 2.18051 15.2295 1.92259H15.2179Z" fill="#1D588E"/>
<path d="M20.9269 12.4103C20.9269 12.4103 20.9014 12.4336 20.8898 12.4476C20.8457 12.4988 16.4768 17.4681 14.0287 18.5248M20.9269 12.4103L20.9203 12.4236L20.9295 12.4282M20.9269 12.4103L20.9344 12.4185L20.937 12.4213M20.9269 12.4103L20.937 12.4213M20.9295 12.4282L20.923 12.4344C20.9152 12.442 20.9064 12.4508 20.9012 12.4571L20.901 12.4573C20.8788 12.4831 19.7752 13.7385 18.3711 15.1197C17.6691 15.8103 16.8917 16.5325 16.1367 17.1481C15.3819 17.7636 14.6486 18.2734 14.0346 18.5384M20.9295 12.4282L20.9296 12.4281L20.9329 12.425L20.9359 12.4223L20.9367 12.4215L20.9369 12.4214L20.9369 12.4213L20.937 12.4213M20.9295 12.4282L20.9296 12.4283L20.9385 12.4327L20.946 12.4262C21.0199 12.3616 21.0804 12.2831 21.1239 12.195C21.1674 12.107 21.1931 12.0112 21.1996 11.9132L21.1996 11.9131C21.2113 11.7099 21.1424 11.5103 21.0078 11.3578C20.9416 11.2812 20.8608 11.2186 20.7701 11.1738C20.6794 11.1289 20.5806 11.1027 20.4797 11.0967M14.0346 18.5384L14.0287 18.5248M14.0346 18.5384C14.0346 18.5384 14.0346 18.5384 14.0346 18.5384L14.0287 18.5248M14.0346 18.5384C12.7364 19.1003 10.6021 19.5009 8.84924 19.5009C7.36087 19.5009 5.31775 19.0699 4.54907 18.8954L4.5375 18.8928V18.8809V14.4586V14.4475L4.54044 14.4497C4.77286 14.1376 5.60719 13.072 6.89738 12.7915C7.6573 12.6259 8.22538 12.6257 8.68653 12.7041C9.14758 12.7824 9.50098 12.9391 9.83079 13.0857L9.83129 13.0859L9.83128 13.0859C10.111 13.2228 10.4061 13.3256 10.7102 13.3919C11.2109 13.4818 11.8476 13.3969 12.5256 13.3065C12.5452 13.3039 12.5647 13.3013 12.5844 13.2987C12.5844 13.2987 12.5844 13.2987 12.5844 13.2987L12.6218 13.2935C12.9975 13.2415 13.396 13.1862 13.7608 13.1673C14.1374 13.1478 14.4806 13.1668 14.7266 13.2694L14.7283 13.2701L14.7282 13.2702C14.8305 13.3283 14.9201 13.4065 14.9915 13.5C15.063 13.5936 15.1148 13.7007 15.144 13.8148L15.1441 13.815C15.1814 13.9675 15.182 14.1267 15.1459 14.2795C15.1098 14.4323 15.0381 14.5743 14.9366 14.694L14.9353 14.6955L14.9352 14.6954L14.5937 15.0003L14.5924 15.0015L14.5924 15.0014C14.0341 15.3938 12.9992 15.8203 11.9385 16.1353C10.8783 16.4501 9.78878 16.6544 9.12038 16.6008C9.02115 16.6006 8.9255 16.638 8.85256 16.7055C8.77948 16.7731 8.73461 16.8658 8.72696 16.9652C8.71931 17.0646 8.74945 17.1632 8.81132 17.2412C8.87296 17.3189 8.96155 17.3705 9.05941 17.3857H9.05975H9.06024H9.06073H9.06122H9.06171H9.0622H9.06269H9.06318H9.06367H9.06416H9.06466H9.06515H9.06564H9.06613H9.06662H9.06711H9.06761H9.0681H9.06859H9.06908H9.06957H9.07007H9.07056H9.07105H9.07154H9.07204H9.07253H9.07302H9.07352H9.07401H9.0745H9.075H9.07549H9.07598H9.07648H9.07697H9.07747H9.07796H9.07845H9.07895H9.07944H9.07994H9.08043H9.08093H9.08142H9.08192H9.08241H9.08291H9.0834H9.0839H9.0844H9.08489H9.08539H9.08588H9.08638H9.08688H9.08737H9.08787H9.08836H9.08886H9.08936H9.08986H9.09035H9.09085H9.09135H9.09184H9.09234H9.09284H9.09334H9.09383H9.09433H9.09483H9.09533H9.09583H9.09632H9.09682H9.09732H9.09782H9.09832H9.09882H9.09932H9.09982H9.10032H9.10082H9.10132H9.10181H9.10231H9.10281H9.10331H9.10381H9.10431H9.10481H9.10532H9.10582H9.10632H9.10682H9.10732H9.10782H9.10832H9.10882H9.10932H9.10982H9.11033H9.11083H9.11133H9.11183H9.11233H9.11284H9.11334H9.11384H9.11434H9.11485H9.11535H9.11585H9.11635H9.11686H9.11736H9.11786H9.11837H9.11887H9.11938H9.11988H9.12038H9.12089H9.12139H9.1219H9.1224H9.1229H9.12341H9.12391H9.12442H9.12492H9.12543H9.12593H9.12644H9.12695H9.12745H9.12796H9.12846H9.12897H9.12948H9.12998H9.13049H9.13099H9.1315H9.13201H9.13251H9.13302H9.13353H9.13404H9.13454H9.13505H9.13556H9.13607H9.13657H9.13708H9.13759H9.1381H9.13861H9.13912H9.13962H9.14013H9.14064H9.14115H9.14166H9.14217H9.14268H9.14319H9.1437H9.14421H9.14472H9.14523H9.14574H9.14625H9.14676H9.14727H9.14778H9.14829H9.1488H9.14931H9.14982H9.15033H9.15084H9.15135H9.15187H9.15238H9.15289H9.1534H9.15391H9.15443H9.15494H9.15545H9.15596H9.15648H9.15699H9.1575H9.15802H9.15853H9.15904H9.15956H9.16007H9.16058H9.1611H9.16161H9.16212H9.16264H9.16315H9.16367H9.16418H9.1647H9.16521H9.16573H9.16624H9.16676H9.16727H9.16779H9.1683H9.16882H9.16934H9.16985H9.17037H9.17088H9.1714H9.17192H9.17243H9.17295H9.17347H9.17398H9.1745H9.17502H9.17554H9.17605H9.17657H9.17709H9.17761H9.17813H9.17864H9.17916H9.17968H9.1802H9.18072H9.18124H9.18176H9.18228H9.18279H9.18331H9.18383H9.18435H9.18487H9.18539H9.18591H9.18643H9.18695H9.18747H9.18799H9.18852H9.18904H9.18956H9.19008H9.1906H9.19112H9.19164H9.19216H9.19269H9.19321H9.19373H9.19425H9.19477H9.1953H9.19582H9.19634H9.19687H9.19739H9.19791H9.19844H9.19896H9.19948H9.20001H9.20053H9.20105H9.20158H9.2021H9.20263H9.20315H9.20368H9.2042H9.20473H9.20525H9.20578H9.2063H9.20683H9.20735H9.20788H9.2084H9.20893H9.20946H9.20998H9.21051H9.21103H9.21156H9.21209H9.21262H9.21314H9.21367H9.2142H9.21473H9.21525H9.21578H9.21631H9.21684H9.21737H9.21789H9.21842H9.21895H9.21948H9.22001H9.22054H9.22107H9.2216H9.22213H9.22265H9.22318H9.22371H9.22424H9.22477H9.2253H9.22584H9.22637H9.2269H9.22743H9.22796H9.22849H9.22902H9.22955H9.23008H9.23062H9.23115H9.23168H9.23221H9.23274H9.23328H9.23381H9.23434H9.23487H9.23541H9.23594H9.23647H9.23701H9.23754H9.23808H9.23861H9.23914H9.23968H9.24021H9.24075H9.24128H9.24181H9.24235H9.24288H9.24342H9.24396H9.24449H9.24503H9.24556H9.2461H9.24663H9.24717H9.24771H9.24824H9.24878H9.24932H9.24985H9.25039H9.25093H9.25146H9.252H9.25254H9.25308H9.25362H9.25415H9.25469H9.25523H9.25577H9.25631H9.25685H9.25738H9.25792H9.25846H9.259H9.25954H9.26008H9.26062H9.26116H9.2617H9.26224H9.26278H9.26332H9.26386H9.2644H9.26495H9.26549H9.26603H9.26657H9.26711H9.26765H9.26819H9.26874H9.26928H9.26982H9.27036H9.27091H9.27145H9.27199H9.27253H9.27308H9.27362H9.27416H9.27471H9.27525H9.2758H9.27634H9.27688H9.27743H9.27797H9.27852H9.27906H9.27961H9.28015H9.2807H9.28124H9.28179H9.28234H9.28288H9.28343H9.28397H9.28452H9.28507H9.28561H9.28616H9.28671H9.28725H9.2878H9.28835H9.2889H9.28944H9.28999H9.29054H9.29109H9.29164H9.29218H9.29273H9.29328H9.29383H9.29438H9.29493H9.29548H9.29603H9.29658H9.29713H9.29768H9.29823H9.29878H9.29933H9.29988H9.30043H9.30098H9.30153H9.30208H9.30264H9.30319H9.30374H9.30429H9.30484H9.3054H9.30595H9.3065H9.30705H9.30761H9.30816H9.30871H9.30927H9.30982H9.31037H9.31093H9.31148H9.31203H9.31259H9.31314H9.3137H9.31425H9.31481H9.31536H9.31592H9.31647H9.31703H9.31758H9.31814H9.3187H9.31925H9.31981H9.32036H9.32092H9.32148H9.32204H9.32259H9.32315H9.32371H9.32426H9.32482H9.32538H9.32546C10.2139 17.3904 11.5389 17.1139 12.7526 16.7057C13.3593 16.5016 13.9377 16.2648 14.4193 16.014C14.9013 15.763 15.2851 15.4988 15.5039 15.2403L15.5052 15.2387L15.5053 15.2388L19.9369 11.282L4.55237 18.8809M14.0287 18.5248C12.7327 19.0857 10.6005 19.4861 8.84924 19.4861C7.36275 19.4861 5.32116 19.0555 4.55237 18.8809M4.55237 18.8809V14.4586V18.8809ZM20.937 12.4213L19.9369 11.282C20.0103 11.2161 20.0962 11.1658 20.1895 11.1339C20.2827 11.1021 20.3814 11.0894 20.4797 11.0967M20.4797 11.0967C20.4797 11.0967 20.4797 11.0967 20.4798 11.0967L20.4787 11.1115L20.4796 11.0967C20.4796 11.0967 20.4796 11.0967 20.4797 11.0967ZM21.5893 10.8304L21.5894 10.8305C21.7252 10.9822 21.8299 11.1593 21.8974 11.3515C21.9649 11.5438 21.9939 11.7475 21.9828 11.951C21.9601 12.3509 21.7817 12.7258 21.486 12.9952L21.4859 12.9951L21.4848 12.9964C21.3131 13.1917 20.1712 14.4826 18.7513 15.8631C18.0414 16.5533 17.2621 17.2657 16.4999 17.8748C15.7375 18.484 14.993 18.9891 14.3526 19.2653C12.9613 19.8648 10.7057 20.2858 8.84924 20.2858C7.37384 20.2858 5.45677 19.9022 4.55559 19.702L4.5375 19.698V19.7165V21.5925C4.5375 21.6966 4.49624 21.7964 4.42279 21.87C4.34935 21.9436 4.24975 21.985 4.1459 21.985H0.406461C0.302613 21.985 0.203013 21.9436 0.129572 21.87C0.0561298 21.7964 0.0148649 21.6966 0.0148649 21.5925V12.408C0.0148649 12.3039 0.0561298 12.2041 0.129572 12.1305C0.203013 12.0569 0.302613 12.0155 0.406461 12.0155H4.13894C4.24278 12.0155 4.34238 12.0569 4.41582 12.1305C4.48927 12.2041 4.53053 12.3039 4.53053 12.408V13.2226V13.2584L4.55589 13.2332C5.15333 12.638 5.90315 12.2198 6.72268 12.0245C7.6093 11.8317 8.29017 11.8405 8.83595 11.9356C9.38166 12.0307 9.79296 12.212 10.1412 12.3656L10.1413 12.3656C10.3639 12.4767 10.5988 12.5614 10.841 12.618L10.841 12.618L10.8418 12.6181C11.0388 12.6534 11.2953 12.6492 11.5775 12.6262C11.8529 12.6037 12.154 12.5633 12.4498 12.5235L12.4722 12.5205L12.4722 12.5205L12.4947 12.5174C12.952 12.4556 13.4106 12.3935 13.8396 12.3801C14.2755 12.3664 14.6794 12.4031 15.0191 12.5403C15.2345 12.6429 15.4249 12.7914 15.577 12.9753C15.7293 13.1594 15.8396 13.3746 15.9003 13.6058L15.9003 13.6059C15.9147 13.6598 15.9263 13.7144 15.9348 13.7696L15.9391 13.7966L15.9595 13.7784L19.4108 10.6874C19.4108 10.6874 19.4108 10.6874 19.4108 10.6874C19.563 10.5529 19.7401 10.4498 19.9321 10.3841C20.1242 10.3185 20.3273 10.2915 20.5297 10.3048C20.7322 10.3181 20.93 10.3713 21.1119 10.4615C21.2937 10.5517 21.456 10.6771 21.5893 10.8304ZM3.73944 21.1954H3.75431V21.1805V12.8013V12.7865H3.73944H0.812922H0.798057V12.8013V21.1805V21.1954H0.812922H3.73944Z" fill="#1D588E" stroke="white" stroke-width="0.0297297"/>
</g>
<defs>
<clipPath id="clip0_297_19149">
<rect width="22" height="22" fill="white"/>
</clipPath>
</defs>
</svg>
