<svg width="24" height="24" viewBox="0 0 24 24" fill="none" xmlns="http://www.w3.org/2000/svg">
<path d="M22.0369 9.17713C22.0381 9.1271 22.0316 9.07718 22.0175 9.02916C21.9721 8.60214 21.806 8.1969 21.5385 7.86095C21.2208 7.47107 20.7742 7.20769 20.2792 7.11842C19.7843 7.02915 19.2738 7.11988 18.8399 7.3742C18.1939 7.72504 17.6683 8.26209 17.3315 8.91557C16.9947 9.56905 16.8622 10.3087 16.9513 11.0385C16.9885 11.3649 17.098 11.679 17.2718 11.9579C17.4456 12.2367 17.6793 12.4734 17.956 12.6506C18.2747 12.8456 18.6415 12.9481 19.0152 12.9465C19.2711 12.9456 19.525 12.9022 19.7667 12.818C20.2344 12.6475 20.6588 12.3759 21.0095 12.0225C21.3601 11.6691 21.6285 11.2427 21.7955 10.7737C21.854 10.6284 21.9009 10.4786 21.9357 10.3259C21.9588 10.2134 21.9901 10.1028 22.0291 9.99488L22.0525 9.36405L22.0759 9.24333L22.0369 9.17713ZM20.8025 9.45361C20.7971 9.86758 20.6872 10.2735 20.483 10.6336C20.2787 10.9937 19.9868 11.2964 19.6343 11.5135C19.4413 11.6414 19.2108 11.7004 18.9801 11.681C18.7751 11.6626 18.5836 11.571 18.4406 11.423C18.2976 11.275 18.2127 11.0804 18.2013 10.8749C18.1441 10.4083 18.2241 9.93508 18.4315 9.51321C18.639 9.09134 18.965 8.73909 19.3695 8.49957C19.5384 8.39908 19.7299 8.34283 19.9264 8.33602H20.0393C20.2294 8.36605 20.4039 8.45921 20.5345 8.6005C20.6652 8.74178 20.7445 8.92296 20.7597 9.11483C20.7858 9.22594 20.8002 9.33949 20.8025 9.45361Z" fill="#1D588E"/>
<path d="M5.92678 12.6434C6.20394 12.4658 6.43797 12.2285 6.61177 11.9489C6.78558 11.6694 6.89479 11.3545 6.93143 11.0274C7.01832 10.2966 6.88314 9.55657 6.54351 8.90369C6.20388 8.25082 5.67552 7.71534 5.02726 7.36699C4.5932 7.11865 4.08495 7.03282 3.59341 7.12485C3.10187 7.21688 2.6591 7.48077 2.34428 7.86932C2.08304 8.19328 1.91959 8.58502 1.8731 8.99858C1.85362 9.06293 1.84442 9.12996 1.84585 9.19718V9.22443V9.89031L1.86921 9.98766C1.90836 10.0972 1.94087 10.2091 1.96656 10.3225C1.99875 10.4743 2.04436 10.6228 2.10285 10.7665C2.26981 11.2355 2.5382 11.6619 2.88888 12.0153C3.23957 12.3686 3.66391 12.6403 4.13164 12.8108C4.3733 12.895 4.62728 12.9384 4.88318 12.9393C5.25157 12.938 5.61254 12.8357 5.92678 12.6434ZM4.92212 11.6816C4.68426 11.7004 4.44698 11.6387 4.24846 11.5063C3.89718 11.2917 3.60587 10.9917 3.40163 10.6343C3.19739 10.2768 3.08683 9.87358 3.08025 9.46197C3.08073 9.34024 3.09378 9.21888 3.11919 9.09983C3.13955 8.90903 3.22365 8.73068 3.35791 8.5936C3.49216 8.45651 3.66873 8.36871 3.85905 8.34439H3.96809C4.16583 8.35054 4.35878 8.40682 4.52883 8.50794C4.93337 8.74745 5.25933 9.0997 5.46681 9.52157C5.67428 9.94345 5.75429 10.4167 5.69703 10.8833C5.68402 11.0868 5.59883 11.279 5.45679 11.4253C5.31474 11.5717 5.12516 11.6625 4.92212 11.6816Z" fill="#1D588E"/>
<path d="M19.3342 16.8767V16.7053C19.3342 16.5768 19.2991 16.4483 19.2719 16.3159V16.2575C19.2383 16.1057 19.1954 15.9562 19.1434 15.8097C19.1005 15.689 19.0499 15.5722 18.9837 15.4203C18.9691 15.3938 18.9561 15.3665 18.9448 15.3385C18.9058 15.2645 18.8591 15.1905 18.8202 15.1205C18.7812 15.0504 18.7267 14.9647 18.6722 14.8829L18.5709 14.7427C18.525 14.6753 18.4757 14.6103 18.423 14.548L18.3529 14.4896L18.31 14.4468L18.2127 14.3417L18.1699 14.2949C18.1114 14.2326 18.053 14.1703 17.9868 14.108C17.0727 13.2167 16.3366 12.1594 15.8179 10.9928C15.5766 10.3884 15.2179 9.83784 14.7626 9.37288C14.6536 9.26837 14.5392 9.16958 14.4199 9.07693C13.7429 8.55209 12.9164 8.25617 12.0601 8.23193H11.9667H11.8148C10.9662 8.25593 10.1476 8.55065 9.4784 9.07304C9.35614 9.16506 9.23913 9.26386 9.12794 9.36899C8.69184 9.83846 8.34951 10.387 8.11939 10.985C7.60067 12.1517 6.86458 13.2089 5.95042 14.1002C5.88422 14.1625 5.82581 14.2248 5.7674 14.291L5.74014 14.3222C5.7012 14.3572 5.66226 14.4001 5.61164 14.4546L5.58438 14.4818C5.5677 14.499 5.55209 14.5172 5.53765 14.5364C5.48496 14.5986 5.43557 14.6636 5.38968 14.7311L5.28454 14.8751C5.23392 14.953 5.18719 15.0309 5.14046 15.1088C5.09374 15.1866 5.0548 15.2529 5.01586 15.3307L4.96523 15.4398C4.91072 15.5566 4.86009 15.6734 4.80558 15.8292C4.75792 15.9671 4.71762 16.1075 4.68486 16.2497V16.3003C4.65637 16.4288 4.63557 16.5588 4.62256 16.6897C4.62256 16.7443 4.62256 16.8027 4.62256 16.8611V16.9662C4.62256 17.0285 4.62256 17.0869 4.62256 17.1453C4.62256 17.2038 4.62256 17.2777 4.62256 17.34V17.4685C4.62256 17.5192 4.62256 17.5737 4.62256 17.6282C4.68709 18.1898 4.87312 18.7306 5.16772 19.2131C5.18316 19.2384 5.20145 19.2619 5.22224 19.2832C5.66662 19.9764 6.30994 20.5193 7.068 20.8408C7.62687 21.0911 8.23132 21.2237 8.84368 21.2302C9.21081 21.2372 9.5773 21.1966 9.934 21.1095C11.2674 20.7563 12.6698 20.7563 14.0033 21.1095C14.959 21.3597 15.9715 21.2759 16.8731 20.8719C17.63 20.5518 18.2712 20.0084 18.7111 19.3143C18.734 19.2887 18.7549 19.2614 18.7734 19.2325C19.0686 18.7489 19.2546 18.2067 19.3186 17.6438C19.3186 17.5932 19.3186 17.5386 19.3186 17.488V17.3595C19.3186 17.2972 19.3186 17.231 19.3186 17.1648C19.3186 17.0986 19.3186 17.0441 19.3186 16.9896L19.3342 16.8767ZM18.0998 17.1142C18.0944 17.4124 18.0485 17.7084 17.9635 17.9942C17.7899 18.5594 17.439 19.0536 16.9627 19.4039C16.9339 19.4151 16.9065 19.4294 16.8809 19.4467C16.5082 19.6953 16.0878 19.8637 15.6465 19.9412C15.2043 20.0194 14.7505 20.0035 14.3148 19.8945C13.59 19.7043 12.8444 19.6049 12.0952 19.5986H11.846C11.0957 19.6053 10.349 19.7033 9.62248 19.8906C9.18637 20.0022 8.73144 20.0193 8.28818 19.9408C7.84493 19.8622 7.42359 19.6898 7.05243 19.435L7.0057 19.4156C6.51433 19.0686 6.15151 18.5689 5.97378 17.9942C5.89045 17.7147 5.84462 17.4253 5.83749 17.1337C5.83724 17.0032 5.84766 16.873 5.86864 16.7443C5.92153 16.3929 6.04327 16.0555 6.2269 15.7513C6.36296 15.5407 6.52376 15.3473 6.70586 15.175C7.43804 14.4733 8.07672 13.6802 8.60614 12.8152C8.9086 12.3116 9.1829 11.7916 9.42778 11.2576L9.47451 11.1563C9.68778 10.6726 10.0371 10.2614 10.4799 9.97269C10.9228 9.68398 11.44 9.53027 11.9686 9.53027C12.4973 9.53027 13.0145 9.68398 13.4573 9.97269C13.9001 10.2614 14.2495 10.6726 14.4627 11.1563L14.5134 11.2615C14.7551 11.7963 15.0282 12.3164 15.3311 12.8191C15.8605 13.6852 16.4992 14.4797 17.2314 15.1828C17.4111 15.3523 17.5694 15.5432 17.7026 15.7513C17.8898 16.0573 18.0142 16.3975 18.0686 16.752C18.0865 16.872 18.0969 16.9929 18.0998 17.1142Z" fill="#1D588E"/>
<path d="M9.01105 7.84592C9.0694 7.8498 9.12794 7.8498 9.18628 7.84592C9.4933 7.80432 9.78596 7.69005 10.0399 7.5126C10.2939 7.33516 10.5019 7.09966 10.6465 6.82569C10.8957 6.40177 11.0437 5.92601 11.0788 5.43553C11.1474 4.88117 11.086 4.31846 10.8995 3.79195C10.7129 3.26544 10.4063 2.78959 10.004 2.40208C9.65805 2.05976 9.19392 1.86323 8.70732 1.85303C8.40667 1.86223 8.11269 1.94385 7.85033 2.09096C7.58798 2.23807 7.365 2.44632 7.20033 2.69803C6.80115 3.29592 6.60083 4.00453 6.62791 4.72292C6.61944 5.62192 6.9504 6.49102 7.55469 7.15668C7.73644 7.36621 7.95975 7.53567 8.21045 7.65432C8.46116 7.77297 8.73379 7.83822 9.01105 7.84592ZM8.14269 3.58587C8.18212 3.51083 8.22771 3.4392 8.27898 3.3717C8.37002 3.23677 8.50943 3.14197 8.66838 3.1069H8.71121C8.85607 3.11766 8.99316 3.17661 9.10061 3.27435C9.50617 3.62805 9.76342 4.12168 9.82101 4.65672C9.84552 4.79288 9.85596 4.9312 9.85216 5.06949C9.86629 5.50315 9.74517 5.93046 9.50559 6.29221C9.4578 6.37138 9.39396 6.43965 9.31817 6.49264C9.24238 6.54562 9.15633 6.58214 9.06557 6.59984C8.976 6.60157 8.88706 6.58444 8.80454 6.54955C8.72203 6.51467 8.64777 6.46281 8.5866 6.39735C8.17749 6.01018 7.93341 5.48018 7.90515 4.91762C7.84589 4.45985 7.92882 3.99492 8.14269 3.58587Z" fill="#1D588E"/>
<path d="M13.2521 6.81735C13.3968 7.09011 13.6044 7.32452 13.8576 7.50124C14.1109 7.67796 14.4025 7.79191 14.7084 7.83369C14.7668 7.83757 14.8253 7.83757 14.8837 7.83369C15.1616 7.82549 15.4348 7.75924 15.6856 7.6392C15.9364 7.51916 16.1593 7.34798 16.34 7.13666C16.9457 6.46722 17.2767 5.59396 17.2668 4.69122C17.2944 3.98109 17.0997 3.28005 16.71 2.6858C16.5663 2.45538 16.372 2.26079 16.1418 2.11687C15.9116 1.97295 15.6515 1.8835 15.3815 1.85533C15.1114 1.82716 14.8385 1.86102 14.5835 1.95433C14.3285 2.04763 14.0982 2.19793 13.9102 2.39375C13.5042 2.77843 13.1938 3.25273 13.0038 3.77876C12.8138 4.30479 12.7495 4.86797 12.8159 5.42329C12.8517 5.91544 13.0009 6.39261 13.2521 6.81735ZM14.0542 5.06115C14.0501 4.92009 14.0619 4.77902 14.0893 4.64059C14.1447 4.10799 14.4009 3.61649 14.8058 3.26601C14.9132 3.16827 15.0503 3.10932 15.1952 3.09856H15.238C15.3975 3.13249 15.5373 3.22755 15.6274 3.36336C15.6821 3.43062 15.7291 3.50376 15.7676 3.58142C15.973 3.98903 16.0517 4.44879 15.9935 4.90149C15.9648 5.46588 15.7192 5.99739 15.3081 6.38512C15.2471 6.45077 15.1729 6.50276 15.0903 6.53766C15.0078 6.57256 14.9188 6.58958 14.8292 6.5876C14.7388 6.5701 14.6533 6.53362 14.5781 6.48059C14.5029 6.42756 14.4398 6.35919 14.393 6.27998C14.157 5.91842 14.0386 5.49266 14.0542 5.06115Z" fill="#1D588E"/>
</svg>
