<svg width="48" height="48" viewBox="0 0 48 48" fill="none" xmlns="http://www.w3.org/2000/svg">
<circle cx="24" cy="24" r="23.75" fill="white" stroke="#8C8C8C" stroke-width="0.5"/>
<path d="M20.6838 36C17.1119 35.9794 14.1572 28.6879 14.1572 24.9745C14.1572 18.9087 18.7076 17.5808 20.4613 17.5808C21.2516 17.5808 22.0955 17.8911 22.8398 18.1658C23.3603 18.3573 23.8986 18.5551 24.198 18.5551C24.3772 18.5551 24.7995 18.3869 25.1724 18.2393C25.9675 17.9227 26.957 17.5293 28.1091 17.5293C28.1112 17.5293 28.114 17.5293 28.116 17.5293C28.9763 17.5293 31.5849 17.7181 33.1532 20.0733L33.5206 20.6253L32.9919 21.0243C32.2366 21.5942 30.8585 22.6338 30.8585 24.6931C30.8585 27.132 32.4192 28.07 33.169 28.5211C33.5 28.7202 33.8426 28.9255 33.8426 29.3746C33.8426 29.6678 31.5025 35.9636 28.1043 35.9636C27.2728 35.9636 26.685 35.7137 26.1666 35.4933C25.642 35.2701 25.1895 35.0779 24.4417 35.0779C24.0627 35.0779 23.5834 35.2571 23.076 35.4473C22.3826 35.7061 21.5977 36 20.7071 36H20.6838Z" fill="black"/>
<path d="M28.4692 12C28.5577 15.1911 26.2756 17.4049 23.9961 17.266C23.6205 14.7195 26.2753 12 28.4692 12Z" fill="black"/>
</svg>
