<svg width="28" height="28" viewBox="0 0 28 28" fill="none" xmlns="http://www.w3.org/2000/svg">
<rect x="0.5" y="0.5" width="27" height="27" rx="4.5" fill="#1B578D" stroke="white"/>
<path d="M4.75012 5.25L6.83012 5.61L7.79312 17.083C7.87012 18.02 8.65312 18.739 9.59312 18.736H20.5021C21.3991 18.738 22.1601 18.078 22.2871 17.19L23.2361 10.632C23.3421 9.899 22.8331 9.219 22.1011 9.113C22.0371 9.104 7.16412 9.099 7.16412 9.099" stroke="white" stroke-width="1.5" stroke-linecap="round" stroke-linejoin="round"/>
<path d="M16.1251 12.7949H18.8981" stroke="white" stroke-width="1.5" stroke-linecap="round" stroke-linejoin="round"/>
<path fill-rule="evenodd" clip-rule="evenodd" d="M9.15447 22.2026C9.45547 22.2026 9.69847 22.4466 9.69847 22.7466C9.69847 23.0476 9.45547 23.2916 9.15447 23.2916C8.85347 23.2916 8.61047 23.0476 8.61047 22.7466C8.61047 22.4466 8.85347 22.2026 9.15447 22.2026Z" fill="white" stroke="white" stroke-width="1.5" stroke-linecap="round" stroke-linejoin="round"/>
<path fill-rule="evenodd" clip-rule="evenodd" d="M20.4347 22.2026C20.7357 22.2026 20.9797 22.4466 20.9797 22.7466C20.9797 23.0476 20.7357 23.2916 20.4347 23.2916C20.1337 23.2916 19.8907 23.0476 19.8907 22.7466C19.8907 22.4466 20.1337 22.2026 20.4347 22.2026Z" fill="white" stroke="white" stroke-width="1.5" stroke-linecap="round" stroke-linejoin="round"/>
</svg>
