<svg width="21" height="21" viewBox="0 0 21 21" fill="none" xmlns="http://www.w3.org/2000/svg">
<path d="M1.25012 1.25L3.33012 1.61L4.29312 13.083C4.37012 14.02 5.15312 14.739 6.09312 14.736H17.0021C17.8991 14.738 18.6601 14.078 18.7871 13.19L19.7361 6.632C19.8421 5.899 19.3331 5.219 18.6011 5.113C18.5371 5.104 3.66412 5.099 3.66412 5.099" stroke="white" stroke-width="1.5" stroke-linecap="round" stroke-linejoin="round"/>
<path d="M12.6251 8.79492H15.3981" stroke="white" stroke-width="1.5" stroke-linecap="round" stroke-linejoin="round"/>
<path fill-rule="evenodd" clip-rule="evenodd" d="M5.65447 18.2021C5.95547 18.2021 6.19847 18.4461 6.19847 18.7461C6.19847 19.0471 5.95547 19.2911 5.65447 19.2911C5.35347 19.2911 5.11047 19.0471 5.11047 18.7461C5.11047 18.4461 5.35347 18.2021 5.65447 18.2021Z" fill="white" stroke="white" stroke-width="1.5" stroke-linecap="round" stroke-linejoin="round"/>
<path fill-rule="evenodd" clip-rule="evenodd" d="M16.9347 18.2021C17.2357 18.2021 17.4797 18.4461 17.4797 18.7461C17.4797 19.0471 17.2357 19.2911 16.9347 19.2911C16.6337 19.2911 16.3907 19.0471 16.3907 18.7461C16.3907 18.4461 16.6337 18.2021 16.9347 18.2021Z" fill="white" stroke="white" stroke-width="1.5" stroke-linecap="round" stroke-linejoin="round"/>
</svg>
