<svg width="18" height="18" viewBox="0 0 18 18" fill="none" xmlns="http://www.w3.org/2000/svg">
<path d="M10.0501 13.0655H8.16762C6.93762 13.0655 5.94012 12.0305 5.94012 10.7555C5.94012 10.448 6.19512 10.193 6.50262 10.193C6.81012 10.193 7.06512 10.448 7.06512 10.7555C7.06512 11.408 7.56012 11.9405 8.16762 11.9405H10.0501C10.5376 11.9405 10.9426 11.5055 10.9426 10.9805C10.9426 10.328 10.7101 10.2005 10.3276 10.0655L7.30512 9.00055C6.72012 8.79805 5.93262 8.36305 5.93262 7.02055C5.93262 5.86555 6.84012 4.93555 7.95012 4.93555H9.83262C11.0626 4.93555 12.0601 5.97055 12.0601 7.24555C12.0601 7.55305 11.8051 7.80805 11.4976 7.80805C11.1901 7.80805 10.9351 7.55305 10.9351 7.24555C10.9351 6.59305 10.4401 6.06055 9.83262 6.06055H7.95012C7.46262 6.06055 7.05762 6.49555 7.05762 7.02055C7.05762 7.67305 7.29012 7.80055 7.67262 7.93555L10.6951 9.00055C11.2801 9.20305 12.0676 9.63805 12.0676 10.9805C12.0601 12.128 11.1601 13.0655 10.0501 13.0655Z" fill="#1B578D"/>
<path d="M9 14.0625C8.6925 14.0625 8.4375 13.8075 8.4375 13.5V4.5C8.4375 4.1925 8.6925 3.9375 9 3.9375C9.3075 3.9375 9.5625 4.1925 9.5625 4.5V13.5C9.5625 13.8075 9.3075 14.0625 9 14.0625Z" fill="#1B578D"/>
<path d="M9 17.0625C4.5525 17.0625 0.9375 13.4475 0.9375 9C0.9375 4.5525 4.5525 0.9375 9 0.9375C13.4475 0.9375 17.0625 4.5525 17.0625 9C17.0625 13.4475 13.4475 17.0625 9 17.0625ZM9 2.0625C5.175 2.0625 2.0625 5.175 2.0625 9C2.0625 12.825 5.175 15.9375 9 15.9375C12.825 15.9375 15.9375 12.825 15.9375 9C15.9375 5.175 12.825 2.0625 9 2.0625Z" fill="#1B578D"/>
</svg>
