<svg width="48" height="48" viewBox="0 0 48 48" fill="none" xmlns="http://www.w3.org/2000/svg">
<circle cx="24" cy="24" r="23.75" fill="white" stroke="#8C8C8C" stroke-width="0.5"/>
<g clip-path="url(#clip0_168_1960)">
<path d="M17.625 23.9997C17.625 22.8106 17.9526 21.6967 18.5218 20.743V16.6973H14.4761C12.8704 18.7826 12 21.3242 12 23.9997C12 26.6752 12.8704 29.2167 14.4761 31.3021H18.5218V27.2564C17.9526 26.3027 17.625 25.1888 17.625 23.9997Z" fill="#FBBD00"/>
<path d="M24 30.3749L21.1875 33.1874L24 35.9999C26.6756 35.9999 29.217 35.1295 31.3024 33.5238V29.4824H27.261C26.2989 30.0536 25.1804 30.3749 24 30.3749Z" fill="#0F9D58"/>
<path d="M18.5218 27.2568L14.4761 31.3025C14.794 31.7154 15.1402 32.1108 15.5147 32.4854C17.7812 34.7519 20.7947 36.0001 24 36.0001V30.3751C21.6739 30.3751 19.6351 29.1226 18.5218 27.2568Z" fill="#31AA52"/>
<path d="M36 24.0004C36 23.2704 35.9339 22.5389 35.8035 21.8265L35.698 21.25H24V26.875H29.6931C29.1402 27.9747 28.2902 28.872 27.261 29.483L31.3024 33.5244C31.7153 33.2065 32.1106 32.8603 32.4853 32.4857C34.7518 30.2192 36 27.2057 36 24.0004Z" fill="#3C79E6"/>
<path d="M28.5078 19.4922L29.005 19.9893L32.9825 16.0119L32.4853 15.5147C30.2188 13.2482 27.2054 12 24 12L21.1875 14.8125L24 17.625C25.7028 17.625 27.3037 18.2881 28.5078 19.4922Z" fill="#CF2D48"/>
<path d="M24.0001 17.625V12C20.7947 12 17.7813 13.2482 15.5147 15.5147C15.1402 15.8893 14.794 16.2847 14.4761 16.6976L18.5218 20.7433C19.6352 18.8775 21.6739 17.625 24.0001 17.625Z" fill="#EB4132"/>
</g>
<defs>
<clipPath id="clip0_168_1960">
<rect width="24" height="24" fill="white" transform="translate(12 12)"/>
</clipPath>
</defs>
</svg>
