<svg width="24" height="24" viewBox="0 0 24 24" fill="none" xmlns="http://www.w3.org/2000/svg">
<rect width="24" height="24" rx="8" fill="#1B578D"/>
<path fill-rule="evenodd" clip-rule="evenodd" d="M6.74501 7.84248C6.92953 7.53695 7.94619 6.42569 8.67169 6.45924C8.88857 6.47721 9.08028 6.60841 9.23604 6.76057C9.5937 7.10982 10.6175 8.43075 10.6757 8.70872C10.817 9.39045 10.0047 9.78344 10.2533 10.4706C10.8871 12.0215 11.9793 13.1136 13.5309 13.7468C14.2175 13.9954 14.6105 13.1831 15.2923 13.3251C15.5696 13.3832 16.8912 14.407 17.2405 14.7646C17.3921 14.9198 17.5239 15.1121 17.5419 15.329C17.5688 16.0928 16.3886 17.1238 16.1586 17.2555C15.6158 17.6437 14.9077 17.6371 14.0444 17.2358C11.6354 16.2335 7.78564 12.4565 6.76478 9.95657C6.37417 9.09811 6.34721 8.38523 6.74501 7.84248Z" stroke="white" stroke-width="0.875" stroke-linecap="round" stroke-linejoin="round"/>
</svg>
