<svg width="24" height="24" viewBox="0 0 24 24" fill="none" xmlns="http://www.w3.org/2000/svg">
<rect width="24" height="24" rx="8" fill="#1B578D"/>
<path d="M13.125 9.75V8.41055C13.125 7.80586 13.2586 7.5 14.1973 7.5H15.375V5.25H13.4098C11.0016 5.25 10.207 6.35391 10.207 8.24883V9.75H8.625V12H10.207V18.75H13.125V12H15.1078L15.375 9.75H13.125ZM14.6086 11.4375H13.1637H12.5625V11.9824V18.1875H10.7695V11.9824V11.4375H10.2457H9.1875V10.3125H10.2457H10.7695V9.73242V8.24883C10.7695 7.3875 10.9594 6.80039 11.3145 6.42773C11.7082 6.00586 12.4078 5.8125 13.4098 5.8125H14.8125V6.9375H14.1973C13.7754 6.9375 13.2305 6.97617 12.893 7.34883C12.6082 7.66523 12.5625 8.05547 12.5625 8.40703V9.72891V10.3125H13.1637H14.7422L14.6086 11.4375Z" fill="white"/>
</svg>
