<svg width="24" height="24" viewBox="0 0 24 24" fill="none" xmlns="http://www.w3.org/2000/svg">
<rect width="24" height="24" rx="8" fill="#1B578D"/>
<path fill-rule="evenodd" clip-rule="evenodd" d="M17.0892 7.02334C15.7766 5.70918 14.031 4.98514 12.1711 4.98438C8.33893 4.98438 5.21996 8.1031 5.21846 11.9364C5.21793 13.1618 5.53808 14.3579 6.14652 15.4122L5.16016 19.015L8.84583 18.0482C9.86132 18.6021 11.0047 18.894 12.1683 18.8944H12.1711C12.1709 18.8944 12.1714 18.8944 12.1711 18.8944C16.0029 18.8944 19.1221 15.7754 19.1237 11.942C19.1244 10.0842 18.4019 8.33745 17.0892 7.02334ZM12.1711 17.7203H12.1688C11.1319 17.7199 10.1148 17.4412 9.22759 16.9148L9.0166 16.7895L6.82947 17.3632L7.41327 15.2308L7.27586 15.0122C6.69742 14.0921 6.39191 13.0287 6.39236 11.9368C6.39361 8.75071 8.98598 6.15862 12.1735 6.15862C13.7169 6.15909 15.1679 6.76099 16.2589 7.85327C17.3499 8.94556 17.9504 10.3974 17.9498 11.9415C17.9485 15.1279 15.3562 17.7203 12.1711 17.7203Z" fill="white"/>
<path fill-rule="evenodd" clip-rule="evenodd" d="M15.3412 13.3926C15.1675 13.3057 14.3134 12.8855 14.1541 12.8274C13.9949 12.7695 13.8791 12.7405 13.7633 12.9144C13.6475 13.0883 13.3146 13.4796 13.2132 13.5956C13.1119 13.7114 13.0105 13.726 12.8368 13.639C12.6631 13.552 12.1034 13.3686 11.4398 12.7768C10.9234 12.3161 10.5747 11.7473 10.4734 11.5733C10.372 11.3994 10.4626 11.3054 10.5496 11.2188C10.6277 11.1409 10.7233 11.0159 10.8102 10.9144C10.897 10.813 10.926 10.7405 10.9839 10.6246C11.0418 10.5087 11.0129 10.4072 10.9694 10.3203C10.926 10.2333 10.5786 9.37826 10.4338 9.03037C10.2927 8.69167 10.1495 8.73756 10.0429 8.73217C9.94172 8.72712 9.82575 8.72607 9.70996 8.72607C9.59416 8.72607 9.40592 8.76956 9.24672 8.94344C9.08749 9.11737 8.63867 9.53769 8.63867 10.3927C8.63867 11.2478 9.26117 12.0738 9.34804 12.1898C9.43488 12.3057 10.573 14.0604 12.3157 14.8129C12.7302 14.9919 13.0537 15.0988 13.306 15.1788C13.7222 15.311 14.1009 15.2924 14.4002 15.2476C14.734 15.1978 15.4281 14.8274 15.5728 14.4216C15.7176 14.0158 15.7176 13.6679 15.6741 13.5955C15.6307 13.5231 15.5149 13.4796 15.3412 13.3926Z" fill="white"/>
</svg>
