<svg width="24" height="24" viewBox="0 0 24 24" fill="none" xmlns="http://www.w3.org/2000/svg">
<rect width="24" height="24" rx="8" fill="#1B578D"/>
<path fill-rule="evenodd" clip-rule="evenodd" d="M9.48831 12.811C9.1122 12.811 8.80664 12.5054 8.80664 12.1293C8.80664 11.7543 9.1122 11.4487 9.48831 11.4487C9.86442 11.4487 10.17 11.7543 10.17 12.1293C10.17 12.5054 9.86442 12.811 9.48831 12.811ZM12.1384 12.811C11.7623 12.811 11.4567 12.5054 11.4567 12.1293C11.4567 11.7543 11.7623 11.4487 12.1384 11.4487C12.5145 11.4487 12.82 11.7543 12.82 12.1293C12.82 12.5054 12.5145 12.811 12.1384 12.811ZM14.1068 12.1293C14.1068 12.5054 14.4123 12.811 14.7884 12.811C15.1645 12.811 15.4701 12.5054 15.4701 12.1293C15.4701 11.7543 15.1645 11.4487 14.7884 11.4487C14.4123 11.4487 14.1068 11.7543 14.1068 12.1293Z" fill="white"/>
<path fill-rule="evenodd" clip-rule="evenodd" d="M12.011 6.1665C8.62185 6.1665 6.16602 8.93507 6.16602 12.0086C6.16602 12.9901 6.45185 14.0002 6.95352 14.9232C7.04685 15.0757 7.05852 15.2679 6.99435 15.4496L6.60352 16.7582C6.51602 17.0737 6.78435 17.3068 7.08185 17.2133L8.26018 16.8634C8.58102 16.7582 8.83185 16.892 9.12935 17.0737C9.98102 17.5755 11.0427 17.8332 11.9993 17.8332C14.8927 17.8332 17.8327 15.5956 17.8327 11.9911C17.8327 8.88249 15.3243 6.1665 12.011 6.1665Z" stroke="white" stroke-width="0.875" stroke-linecap="round" stroke-linejoin="round"/>
</svg>
