<svg width="24" height="24" viewBox="0 0 24 24" fill="none" xmlns="http://www.w3.org/2000/svg">
<rect width="24" height="24" rx="8" fill="#1B578D"/>
<g clip-path="url(#clip0_602_37830)">
<path d="M12.2815 7C14.3221 7 15.9908 7.03438 17.5346 7.10313H17.5565H17.5783C18.3002 7.10313 18.8908 7.79062 18.8908 8.6375V8.67188L18.894 8.70625C18.9658 9.76875 19.0002 10.8719 19.0002 11.9844C19.0033 13.0969 18.9658 14.2 18.894 15.2625L18.8908 15.2969V15.3313C18.8908 15.7625 18.744 16.1625 18.4721 16.4594C18.2283 16.7281 17.9096 16.8781 17.5783 16.8781H17.5533H17.5283C15.8752 16.9563 14.1283 16.9969 12.3283 16.9969C12.219 16.9969 12.1065 16.9969 11.9971 16.9969C11.8846 16.9969 11.7721 16.9969 11.6596 16.9969C9.85334 16.9969 8.10646 16.9563 6.46584 16.8813H6.44084H6.41584C6.08459 16.8813 5.76896 16.7312 5.52521 16.4625C5.25646 16.1656 5.10646 15.7656 5.10646 15.3344V15.3L5.10334 15.2656C5.02834 14.2 4.99396 13.0969 5.00021 11.9938V11.9906V11.9875C4.99709 10.8844 5.03146 9.78437 5.10334 8.71875L5.10646 8.68437V8.65C5.10646 7.8 5.69396 7.10938 6.41584 7.10938H6.43771H6.45959C8.00646 7.0375 9.67521 7.00625 11.7158 7.00625H11.9971H12.2815M12.2815 6C12.1877 6 12.094 6 12.0002 6C11.9065 6 11.8127 6 11.719 6C9.91896 6 8.15021 6.025 6.41896 6.10313C5.14396 6.10313 4.10959 7.2375 4.10959 8.64375C4.03146 9.7625 3.99709 10.875 4.00021 11.9906C3.99709 13.1062 4.02834 14.2188 4.10646 15.3344C4.10646 16.7406 5.14084 17.8844 6.41584 17.8844C8.12834 17.9656 9.87521 18.0031 11.6596 18.0031C11.7721 18.0031 11.8877 18.0031 12.0002 18.0031C12.1127 18.0031 12.2252 18.0031 12.3346 18.0031C14.119 18.0031 15.8658 17.9656 17.5815 17.8844C18.8596 17.8844 19.894 16.7406 19.894 15.3344C19.969 14.2188 20.0033 13.1031 20.0002 11.9875C20.0033 10.8719 19.969 9.75938 19.894 8.64062C19.894 7.23438 18.8596 6.10625 17.5815 6.10625C15.8502 6.025 14.0846 6 12.2815 6Z" fill="white"/>
<path d="M10.4688 15.0564V8.91895L15 11.9877L10.4688 15.0564Z" fill="white"/>
</g>
<defs>
<clipPath id="clip0_602_37830">
<rect width="16" height="16" fill="white" transform="translate(4 4)"/>
</clipPath>
</defs>
</svg>
