<svg width="24" height="24" viewBox="0 0 24 24" fill="none" xmlns="http://www.w3.org/2000/svg">
<path d="M0 8C0 3.58172 3.58172 0 8 0H16C20.4183 0 24 3.58172 24 8V16C24 20.4183 20.4183 24 16 24H8C3.58172 24 0 20.4183 0 16V8Z" fill="#1B578D"/>
<path d="M14.6719 6.23438C15.4924 6.23438 16.2793 6.56032 16.8595 7.14051C17.4397 7.7207 17.7656 8.50761 17.7656 9.32812V14.6719C17.7656 15.4924 17.4397 16.2793 16.8595 16.8595C16.2793 17.4397 15.4924 17.7656 14.6719 17.7656H9.32812C8.50761 17.7656 7.7207 17.4397 7.14051 16.8595C6.56032 16.2793 6.23438 15.4924 6.23438 14.6719V9.32812C6.23438 8.50761 6.56032 7.7207 7.14051 7.14051C7.7207 6.56032 8.50761 6.23438 9.32812 6.23438H14.6719ZM14.6719 5.10938H9.32812C8.21027 5.11271 7.13915 5.55826 6.34871 6.34871C5.55826 7.13915 5.11271 8.21027 5.10938 9.32812V14.6719C5.11271 15.7897 5.55826 16.8608 6.34871 17.6513C7.13915 18.4417 8.21027 18.8873 9.32812 18.8906H14.6719C15.7897 18.8873 16.8608 18.4417 17.6513 17.6513C18.4417 16.8608 18.8873 15.7897 18.8906 14.6719V9.32812C18.8873 8.21027 18.4417 7.13915 17.6513 6.34871C16.8608 5.55826 15.7897 5.11271 14.6719 5.10938Z" fill="white"/>
<path d="M15.6759 7.5C15.5165 7.5 15.3607 7.54726 15.2282 7.6358C15.0957 7.72434 14.9924 7.85018 14.9315 7.99742C14.8705 8.14466 14.8545 8.30667 14.8856 8.46298C14.9167 8.61929 14.9934 8.76286 15.1061 8.87555C15.2188 8.98825 15.3624 9.06499 15.5187 9.09608C15.675 9.12717 15.837 9.11121 15.9843 9.05023C16.1315 8.98924 16.2573 8.88596 16.3459 8.75345C16.4344 8.62094 16.4817 8.46515 16.4817 8.30578C16.4817 8.19996 16.4608 8.09518 16.4203 7.99742C16.3798 7.89966 16.3205 7.81083 16.2457 7.73601C16.1708 7.66118 16.082 7.60183 15.9843 7.56134C15.8865 7.52084 15.7817 7.5 15.6759 7.5Z" fill="white"/>
<path d="M12.0378 9.53516C12.5297 9.53488 13.0106 9.6805 13.4196 9.95359C13.8287 10.2267 14.1476 10.615 14.3359 11.0693C14.5243 11.5237 14.5737 12.0237 14.4778 12.5061C14.3819 12.9885 14.1451 13.4317 13.7973 13.7795C13.4495 14.1272 13.0063 14.3641 12.5239 14.46C12.0415 14.5558 11.5415 14.5065 11.0871 14.3181C10.6328 14.1298 10.2445 13.8109 9.97139 13.4018C9.69831 12.9927 9.55269 12.5119 9.55297 12.02C9.55409 11.3613 9.81624 10.7299 10.282 10.2642C10.7478 9.79843 11.3791 9.53628 12.0378 9.53516ZM12.0378 8.41016C11.3238 8.41155 10.6263 8.62457 10.0333 9.02228C9.44031 9.42 8.97854 9.98456 8.70634 10.6446C8.43413 11.3047 8.3637 12.0307 8.50395 12.7308C8.6442 13.4308 8.98883 14.0736 9.49429 14.5779C9.99975 15.0822 10.6434 15.4253 11.3438 15.564C12.0442 15.7026 12.77 15.6304 13.4294 15.3567C14.0888 15.0829 14.6523 14.6199 15.0487 14.026C15.445 13.4321 15.6564 12.734 15.6561 12.02C15.6559 11.5453 15.5621 11.0753 15.3801 10.6368C15.1981 10.1984 14.9315 9.80017 14.5954 9.46489C14.2593 9.12961 13.8605 8.86388 13.4216 8.6829C12.9828 8.50192 12.5125 8.40924 12.0378 8.41016Z" fill="white"/>
</svg>
