<svg width="14" height="14" viewBox="0 0 14 14" fill="none" xmlns="http://www.w3.org/2000/svg">
<path fill-rule="evenodd" clip-rule="evenodd" d="M7.73617 1.78435L8.95445 4.21818C9.07384 4.45711 9.30431 4.62279 9.57157 4.66113L12.2969 5.05342C12.9702 5.15063 13.2382 5.9667 12.7509 6.4343L10.7801 8.32797C10.5864 8.51419 10.4983 8.78187 10.5441 9.04477L11.0092 11.7182C11.1237 12.3796 10.4198 12.8841 9.818 12.5713L7.38214 11.3081C7.14335 11.1842 6.85735 11.1842 6.61786 11.3081L4.182 12.5713C3.58015 12.8841 2.87626 12.3796 2.9915 11.7182L3.4559 9.04477C3.50171 8.78187 3.41355 8.51419 3.21988 8.32797L1.24912 6.4343C0.76181 5.9667 1.02976 5.15063 1.70311 5.05342L4.42843 4.66113C4.69569 4.62279 4.92685 4.45711 5.04625 4.21818L6.26383 1.78435C6.5651 1.18256 7.4349 1.18256 7.73617 1.78435Z" fill="#F2B705" stroke="#F2B705" stroke-linecap="round" stroke-linejoin="round"/>
</svg>
