<svg width="32" height="32" viewBox="0 0 32 32" fill="none" xmlns="http://www.w3.org/2000/svg">
<path d="M9.87462 8.13648V8.83023H9.24512C9.13741 8.83035 9.03414 8.87318 8.95798 8.94935C8.88182 9.02551 8.83898 9.12877 8.83887 9.23648V10.2607C8.83898 10.3684 8.88182 10.4717 8.95798 10.5479C9.03414 10.624 9.13741 10.6669 9.24512 10.667H9.87462V11.3607C9.87473 11.4684 9.91757 11.5717 9.99373 11.6479C10.0699 11.724 10.1732 11.7669 10.2809 11.767H11.3034C11.4111 11.7668 11.5144 11.724 11.5905 11.6478C11.6667 11.5717 11.7095 11.4684 11.7097 11.3607V10.667H12.3391C12.4468 10.6669 12.5501 10.624 12.6263 10.5479C12.7024 10.4717 12.7453 10.3684 12.7454 10.2607V9.23623C12.7453 9.12852 12.7024 9.02526 12.6263 8.9491C12.5501 8.87293 12.4468 8.8301 12.3391 8.82998H11.7096V8.13623C11.7095 8.02853 11.6666 7.92527 11.5905 7.84911C11.5143 7.77296 11.4111 7.73011 11.3034 7.72998H10.2808C10.1731 7.73011 10.0698 7.77299 9.99362 7.84921C9.91747 7.92542 9.87467 8.02874 9.87462 8.13648ZM10.6246 9.12854V8.48023H10.9596V9.12854C10.9597 9.24821 11.0073 9.36295 11.0919 9.44759C11.1765 9.53222 11.2913 9.57983 11.4109 9.57998H11.9952V9.91673H11.4109C11.2913 9.91688 11.1765 9.96449 11.0919 10.0491C11.0073 10.1338 10.9597 10.2485 10.9596 10.3682V11.0165H10.6246V10.3682C10.6245 10.2485 10.5769 10.1338 10.4923 10.0491C10.4077 9.96449 10.2929 9.91688 10.1732 9.91673H9.58893V9.57998H10.1732C10.2929 9.57983 10.4077 9.53222 10.4923 9.44759C10.5769 9.36296 10.6245 9.24822 10.6246 9.12854Z" fill="#1B578D"/>
<path d="M14.7385 8.95557H22.4592C22.5586 8.95557 22.654 8.91606 22.7243 8.84573C22.7946 8.77541 22.8342 8.68002 22.8342 8.58057C22.8342 8.48111 22.7946 8.38573 22.7243 8.3154C22.654 8.24507 22.5586 8.20557 22.4592 8.20557H14.7385C14.639 8.20557 14.5436 8.24507 14.4733 8.3154C14.403 8.38573 14.3635 8.48111 14.3635 8.58057C14.3635 8.68002 14.403 8.77541 14.4733 8.84573C14.5436 8.91606 14.639 8.95557 14.7385 8.95557Z" fill="#1B578D"/>
<path d="M14.7385 11.5723H22.4592C22.5586 11.5723 22.654 11.5328 22.7243 11.4624C22.7946 11.3921 22.8342 11.2967 22.8342 11.1973C22.8342 11.0978 22.7946 11.0024 22.7243 10.9321C22.654 10.8618 22.5586 10.8223 22.4592 10.8223H14.7385C14.639 10.8223 14.5436 10.8618 14.4733 10.9321C14.403 11.0024 14.3635 11.0978 14.3635 11.1973C14.3635 11.2967 14.403 11.3921 14.4733 11.4624C14.5436 11.5328 14.639 11.5723 14.7385 11.5723Z" fill="#1B578D"/>
<path d="M9.21387 14.1895H22.4593C22.5588 14.1895 22.6541 14.1499 22.7245 14.0796C22.7948 14.0093 22.8343 13.9139 22.8343 13.8145C22.8343 13.715 22.7948 13.6196 22.7245 13.5493C22.6541 13.479 22.5588 13.4395 22.4593 13.4395H9.21387C9.11441 13.4395 9.01903 13.479 8.9487 13.5493C8.87838 13.6196 8.83887 13.715 8.83887 13.8145C8.83887 13.9139 8.87838 14.0093 8.9487 14.0796C9.01903 14.1499 9.11441 14.1895 9.21387 14.1895Z" fill="#1B578D"/>
<path d="M9.21387 16.8066H22.4593C22.5588 16.8066 22.6541 16.7671 22.7245 16.6968C22.7948 16.6265 22.8343 16.5311 22.8343 16.4316C22.8343 16.3322 22.7948 16.2368 22.7245 16.1665C22.6541 16.0961 22.5588 16.0566 22.4593 16.0566H9.21387C9.11441 16.0566 9.01903 16.0961 8.9487 16.1665C8.87838 16.2368 8.83887 16.3322 8.83887 16.4316C8.83887 16.5311 8.87838 16.6265 8.9487 16.6968C9.01903 16.7671 9.11441 16.8066 9.21387 16.8066Z" fill="#1B578D"/>
<path d="M9.21387 19.4233H22.4593C22.5588 19.4233 22.6541 19.3838 22.7245 19.3135C22.7948 19.2432 22.8343 19.1478 22.8343 19.0483C22.8343 18.9489 22.7948 18.8535 22.7245 18.7832C22.6541 18.7128 22.5588 18.6733 22.4593 18.6733H9.21387C9.11441 18.6733 9.01903 18.7128 8.9487 18.7832C8.87838 18.8535 8.83887 18.9489 8.83887 19.0483C8.83887 19.1478 8.87838 19.2432 8.9487 19.3135C9.01903 19.3838 9.11441 19.4233 9.21387 19.4233Z" fill="#1B578D"/>
<path d="M9.21387 22.04H22.4593C22.5588 22.04 22.6541 22.0005 22.7245 21.9302C22.7948 21.8599 22.8343 21.7645 22.8343 21.665C22.8343 21.5656 22.7948 21.4702 22.7245 21.3999C22.6541 21.3295 22.5588 21.29 22.4593 21.29H9.21387C9.11441 21.29 9.01903 21.3295 8.9487 21.3999C8.87838 21.4702 8.83887 21.5656 8.83887 21.665C8.83887 21.7645 8.87838 21.8599 8.9487 21.9302C9.01903 22.0005 9.11441 22.04 9.21387 22.04Z" fill="#1B578D"/>
<path d="M15.5959 23.9067H9.21387C9.11441 23.9067 9.01903 23.9462 8.9487 24.0166C8.87838 24.0869 8.83887 24.1823 8.83887 24.2817C8.83887 24.3812 8.87838 24.4766 8.9487 24.5469C9.01903 24.6172 9.11441 24.6567 9.21387 24.6567H15.5959C15.6954 24.6567 15.7908 24.6172 15.8611 24.5469C15.9314 24.4766 15.9709 24.3812 15.9709 24.2817C15.9709 24.1823 15.9314 24.0869 15.8611 24.0166C15.7908 23.9462 15.6954 23.9067 15.5959 23.9067Z" fill="#1B578D"/>
<path d="M15.5959 26.5239H9.21387C9.11441 26.5239 9.01903 26.5634 8.9487 26.6338C8.87838 26.7041 8.83887 26.7995 8.83887 26.8989C8.83887 26.9984 8.87838 27.0938 8.9487 27.1641C9.01903 27.2344 9.11441 27.2739 9.21387 27.2739H15.5959C15.6954 27.2739 15.7908 27.2344 15.8611 27.1641C15.9314 27.0938 15.9709 26.9984 15.9709 26.8989C15.9709 26.7995 15.9314 26.7041 15.8611 26.6338C15.7908 26.5634 15.6954 26.5239 15.5959 26.5239Z" fill="#1B578D"/>
<path d="M21.4469 25.2951C21.3201 25.1592 21.1668 25.0506 20.9966 24.9759C20.8264 24.9012 20.6428 24.8619 20.4569 24.8604C20.271 24.8589 20.0868 24.8953 19.9154 24.9673C19.744 25.0394 19.5891 25.1455 19.4601 25.2793L18.6119 26.1582C18.4311 26.3448 18.3144 26.5842 18.279 26.8417C18.2435 27.0991 18.2912 27.3612 18.4149 27.5897L18.4329 27.6232C18.576 27.8933 18.8159 28.0993 19.1045 28.2C19.3931 28.3007 19.7091 28.2886 19.9891 28.1662L20.269 28.0453C20.331 28.0186 20.3981 28.0055 20.4657 28.0072C20.5332 28.0089 20.5996 28.0252 20.6602 28.055L20.9035 28.1745C21.1475 28.2947 21.4247 28.3297 21.6908 28.2738C21.957 28.2179 22.1967 28.0743 22.3717 27.8662C22.5629 27.6379 22.6649 27.3481 22.6587 27.0504C22.6524 26.7527 22.5384 26.4674 22.3378 26.2474L21.4469 25.2951ZM21.7983 27.3826C21.7311 27.4626 21.639 27.5178 21.5367 27.5394C21.4344 27.5609 21.3279 27.5475 21.2341 27.5013L20.9908 27.3818C20.8329 27.3041 20.6599 27.2617 20.484 27.2573C20.308 27.253 20.1332 27.287 19.9716 27.3568L19.6918 27.4777C19.584 27.5246 19.4624 27.5291 19.3515 27.4902C19.2405 27.4513 19.1483 27.3719 19.0934 27.268L19.0753 27.2345C19.0273 27.1458 19.0088 27.0442 19.0225 26.9443C19.0362 26.8444 19.0814 26.7515 19.1516 26.6791L19.9999 25.8002C20.0583 25.7396 20.1284 25.6915 20.206 25.6588C20.2836 25.6262 20.367 25.6097 20.4512 25.6104C20.5353 25.611 20.6185 25.6289 20.6955 25.6627C20.7726 25.6966 20.8419 25.7458 20.8993 25.8073L21.7868 26.756C21.8641 26.8414 21.9079 26.9519 21.91 27.0671C21.9121 27.1823 21.8724 27.2943 21.7983 27.3825V27.3826Z" fill="#1B578D"/>
<path d="M18.5361 23.8697C18.5361 24.5259 18.9567 25.0405 19.4936 25.0405C20.0304 25.0405 20.451 24.5262 20.451 23.8697C20.451 23.2131 20.0304 22.6987 19.4936 22.6987C18.9567 22.6987 18.5361 23.213 18.5361 23.8697ZM19.701 23.8697C19.701 24.1307 19.5667 24.2905 19.4936 24.2905C19.4204 24.2905 19.2861 24.1307 19.2861 23.8697C19.2861 23.6086 19.4204 23.4487 19.4936 23.4487C19.5667 23.4487 19.701 23.6085 19.701 23.8697Z" fill="#1B578D"/>
<path d="M20.5133 23.9106C20.5133 24.5672 20.9339 25.0816 21.4707 25.0816C22.0076 25.0816 22.4282 24.5672 22.4282 23.9106C22.4282 23.254 22.0076 22.7397 21.4707 22.7397C20.9339 22.7397 20.5133 23.2541 20.5133 23.9106ZM21.6782 23.9106C21.6782 24.1717 21.5439 24.3316 21.4707 24.3316C21.3976 24.3316 21.2633 24.1717 21.2633 23.9106C21.2633 23.6495 21.3976 23.4897 21.4707 23.4897C21.5439 23.4897 21.6782 23.6496 21.6782 23.9106Z" fill="#1B578D"/>
<path d="M22.1213 25.0423C21.9306 25.6348 22.1576 26.2212 22.6383 26.3772C22.7141 26.4017 22.7933 26.4141 22.873 26.414C23.0072 26.4131 23.1393 26.3803 23.2584 26.3183C23.5387 26.1634 23.7468 25.9044 23.8378 25.5974C24.0287 25.0048 23.8016 24.4184 23.3209 24.2624C23.2188 24.2307 23.1114 24.2196 23.005 24.2297C22.8986 24.2398 22.7952 24.2709 22.7009 24.3213C22.4205 24.4761 22.2123 24.7351 22.1213 25.0423ZM22.8352 25.2721C22.8666 25.1552 22.9405 25.0542 23.0424 24.9889C23.0556 24.9814 23.0702 24.9768 23.0854 24.9753C23.0867 24.9753 23.0881 24.9754 23.0894 24.9758C23.1245 24.9872 23.1942 25.1489 23.1239 25.3675C23.0925 25.4844 23.0187 25.5853 22.9168 25.6506C22.9027 25.6594 22.8864 25.664 22.8698 25.6638C22.8347 25.6524 22.7649 25.4906 22.8352 25.2721Z" fill="#1B578D"/>
<path d="M18.7383 24.9156C18.6321 24.6134 18.4114 24.3652 18.1237 24.2245C18.0269 24.1789 17.9221 24.153 17.8153 24.1483C17.7084 24.1435 17.6017 24.16 17.5013 24.1968C17.0291 24.3766 16.8316 24.9736 17.0513 25.5558C17.1575 25.858 17.3783 26.1063 17.666 26.2469C17.7759 26.2972 17.8952 26.3235 18.016 26.3242C18.1089 26.3244 18.2011 26.3076 18.288 26.2747C18.7608 26.0948 18.9583 25.4978 18.7383 24.9156ZM18.0216 25.5738C18.005 25.5748 17.9885 25.5711 17.974 25.563C17.8691 25.5029 17.7903 25.4058 17.7532 25.2908C17.6719 25.076 17.7338 24.9108 17.7683 24.8977C17.7701 24.8971 17.7719 24.8969 17.7738 24.897C17.7885 24.898 17.8027 24.9019 17.8159 24.9085C17.9208 24.9685 17.9996 25.0656 18.0367 25.1807C18.1179 25.3955 18.0563 25.5606 18.0216 25.5738Z" fill="#1B578D"/>
<path d="M25.7649 3.06354H21.798V2.87522C21.7979 2.70952 21.732 2.55065 21.6148 2.43348C21.4976 2.31631 21.3388 2.25041 21.173 2.25022H17.8864C17.8427 1.80527 17.6351 1.39247 17.3039 1.09215C16.9727 0.791833 16.5416 0.625488 16.0945 0.625488C15.6474 0.625488 15.2163 0.791833 14.8851 1.09215C14.5539 1.39247 14.3463 1.80527 14.3027 2.25022H10.9891C10.8234 2.25039 10.6645 2.31629 10.5473 2.43346C10.4302 2.55064 10.3643 2.70951 10.3641 2.87522V3.0636H6.23492C5.85293 3.06426 5.4868 3.21641 5.21685 3.48667C4.94689 3.75693 4.79515 4.12323 4.79492 4.50522V29.9335C4.79514 30.3155 4.94687 30.6819 5.21682 30.9521C5.48678 31.2224 5.85292 31.3746 6.23492 31.3752H25.7649C26.1469 31.3746 26.5131 31.2224 26.783 30.9521C27.053 30.6819 27.2047 30.3155 27.2049 29.9335V4.50522C27.2047 4.12322 27.053 3.7569 26.783 3.48663C26.5131 3.21636 26.1469 3.0642 25.7649 3.06354ZM11.1141 3.00022H14.6829C14.7364 3.00023 14.7894 2.98875 14.8381 2.96657C14.8869 2.94439 14.9303 2.91201 14.9655 2.87163C15.0008 2.83125 15.0269 2.78379 15.0422 2.73246C15.0575 2.68113 15.0617 2.62711 15.0544 2.57404C15.0476 2.52568 15.0442 2.47692 15.044 2.4281C15.043 2.28946 15.0694 2.15198 15.1217 2.02358C15.174 1.89519 15.2512 1.77842 15.3489 1.68001C15.4465 1.58159 15.5627 1.50348 15.6907 1.45018C15.8187 1.39688 15.9559 1.36943 16.0946 1.36943C16.2332 1.36943 16.3705 1.39688 16.4985 1.45018C16.6265 1.50348 16.7426 1.58159 16.8403 1.68001C16.938 1.77842 17.0152 1.89519 17.0675 2.02358C17.1198 2.15198 17.1462 2.28946 17.1451 2.4281C17.145 2.47692 17.1416 2.52568 17.1348 2.57404C17.1275 2.6271 17.1316 2.6811 17.1469 2.73243C17.1623 2.78375 17.1884 2.8312 17.2236 2.87158C17.2588 2.91196 17.3022 2.94434 17.3509 2.96653C17.3997 2.98872 17.4526 3.00021 17.5062 3.00022H21.048V5.65679H11.1141V3.00022ZM10.7391 6.40685H21.423C21.5225 6.40685 21.6179 6.36734 21.6882 6.29701C21.7585 6.22669 21.798 6.13131 21.798 6.03185V5.09266H24.789C24.7906 5.09269 24.7922 5.09304 24.7937 5.09369C24.7951 5.09435 24.7964 5.09528 24.7975 5.09645C24.7986 5.09761 24.7994 5.09899 24.8 5.10048C24.8005 5.10198 24.8008 5.10357 24.8007 5.10516V29.187C24.8007 29.1886 24.8005 29.1902 24.8 29.1917C24.7994 29.1932 24.7986 29.1946 24.7975 29.1957C24.7964 29.1969 24.7951 29.1978 24.7937 29.1985C24.7922 29.1991 24.7906 29.1995 24.789 29.1995H7.15905C7.15746 29.1995 7.15589 29.1991 7.15444 29.1985C7.15299 29.1978 7.15169 29.1969 7.1506 29.1957C7.14952 29.1946 7.14868 29.1932 7.14814 29.1917C7.14759 29.1902 7.14735 29.1886 7.14742 29.187V5.10485C7.14734 5.10326 7.14757 5.10167 7.14812 5.10017C7.14866 5.09867 7.1495 5.0973 7.15058 5.09613C7.15167 5.09497 7.15298 5.09403 7.15443 5.09338C7.15588 5.09273 7.15745 5.09238 7.15905 5.09235H10.3641V6.03179C10.3641 6.13124 10.4036 6.22662 10.4739 6.29695C10.5443 6.36728 10.6397 6.40679 10.7391 6.40679V6.40685ZM26.4549 29.9335C26.4549 30.1167 26.3823 30.2924 26.2529 30.4221C26.1236 30.5517 25.9481 30.6248 25.7649 30.6252H6.23492C6.05176 30.6248 5.87625 30.5517 5.7469 30.4221C5.61754 30.2924 5.5449 30.1167 5.54492 29.9335V4.50522C5.54492 4.32207 5.61756 4.14639 5.74692 4.01672C5.87627 3.88705 6.05177 3.81398 6.23492 3.81354H10.3641V4.34266H7.15905C6.95697 4.34289 6.76325 4.42333 6.62044 4.5663C6.47764 4.70927 6.39742 4.90309 6.39742 5.10516V29.187C6.39742 29.3891 6.47764 29.5829 6.62044 29.7259C6.76325 29.8689 6.95697 29.9493 7.15905 29.9495H24.789C24.9911 29.9493 25.1848 29.8689 25.3277 29.7259C25.4705 29.5829 25.5507 29.3891 25.5507 29.187V5.10485C25.5507 4.90277 25.4705 4.70896 25.3277 4.56599C25.1848 4.42302 24.9911 4.34258 24.789 4.34235H21.798V3.81354H25.7649C25.9481 3.81398 26.1236 3.88705 26.2529 4.01672C26.3823 4.14639 26.4549 4.32207 26.4549 4.50522V29.9335Z" fill="#1B578D"/>
<path d="M19.0441 4.17188H13.009C12.9095 4.17188 12.8141 4.21138 12.7438 4.28171C12.6735 4.35204 12.634 4.44742 12.634 4.54688C12.634 4.64633 12.6735 4.74171 12.7438 4.81204C12.8141 4.88237 12.9095 4.92188 13.009 4.92188H19.0441C19.1436 4.92188 19.2389 4.88237 19.3093 4.81204C19.3796 4.74171 19.4191 4.64633 19.4191 4.54688C19.4191 4.44742 19.3796 4.35204 19.3093 4.28171C19.2389 4.21138 19.1436 4.17188 19.0441 4.17188Z" fill="#1B578D"/>
</svg>
