<svg width="48" height="48" viewBox="0 0 48 48" fill="none" xmlns="http://www.w3.org/2000/svg">
<circle cx="24" cy="24" r="23.75" fill="white" stroke="#8C8C8C" stroke-width="0.5"/>
<path d="M34.279 17.6211C33.5053 17.9527 32.6843 18.1896 31.8632 18.2843C32.7474 17.7632 33.4106 16.9264 33.7264 15.9475C32.8895 16.4211 31.9895 16.7843 31.0579 16.9738C29.4632 15.2843 26.7948 15.1738 25.1053 16.7685C24.2527 17.558 23.7632 18.6948 23.7632 19.8632C23.7632 20.179 23.779 20.5106 23.8737 20.8264C20.4474 20.6527 17.2895 19.0422 15.1422 16.4211C14.0211 18.3475 14.5737 20.8264 16.4369 22.058C15.7737 22.0422 15.1264 21.8685 14.5422 21.5369V21.5843C14.5422 23.5896 15.9632 25.3264 17.9211 25.7211C17.5737 25.8317 17.1948 25.8632 16.8158 25.8632C16.5474 25.8632 16.279 25.8475 16.0264 25.8001C16.579 27.5054 18.1579 28.6738 19.9737 28.7369C18.4895 29.9054 16.6579 30.5369 14.7474 30.5369C14.4158 30.5369 14.0843 30.5211 13.7527 30.4738C15.679 31.7211 17.9211 32.3685 20.2264 32.3685C27.979 32.3685 32.2106 25.9422 32.2106 20.3843C32.2106 20.1948 32.2106 20.0054 32.1948 19.8475C33.0001 19.2159 33.7106 18.458 34.279 17.6211Z" fill="#00BBFB"/>
</svg>
